<svg width="153" height="48" viewBox="0 0 153 48" fill="none" xmlns="http://www.w3.org/2000/svg">
<path d="M153 0H0V48H153V0Z" fill="#563D7C"/>
<path d="M47.0241 23.96C47.5934 24.0813 48.0507 24.366 48.3961 24.814C48.7414 25.2527 48.9141 25.7567 48.9141 26.326C48.9141 27.1473 48.6247 27.8007 48.0461 28.286C47.4767 28.762 46.6787 29 45.6521 29H41.0741V19.172H45.4981C46.4967 19.172 47.2761 19.4007 47.8361 19.858C48.4054 20.3153 48.6901 20.936 48.6901 21.72C48.6901 22.2987 48.5361 22.7793 48.2281 23.162C47.9294 23.5447 47.5281 23.8107 47.0241 23.96ZM43.4681 23.148H45.0361C45.4281 23.148 45.7267 23.064 45.9321 22.896C46.1467 22.7187 46.2541 22.462 46.2541 22.126C46.2541 21.79 46.1467 21.5333 45.9321 21.356C45.7267 21.1787 45.4281 21.09 45.0361 21.09H43.4681V23.148ZM45.2321 27.068C45.6334 27.068 45.9414 26.9793 46.1561 26.802C46.3801 26.6153 46.4921 26.3493 46.4921 26.004C46.4921 25.6587 46.3754 25.388 46.1421 25.192C45.9181 24.996 45.6054 24.898 45.2041 24.898H43.4681V27.068H45.2321ZM54.9506 29.098C54.0266 29.098 53.1772 28.8833 52.4026 28.454C51.6372 28.0247 51.0259 27.4273 50.5686 26.662C50.1206 25.8873 49.8966 25.0193 49.8966 24.058C49.8966 23.0967 50.1206 22.2333 50.5686 21.468C51.0259 20.7027 51.6372 20.1053 52.4026 19.676C53.1772 19.2467 54.0266 19.032 54.9506 19.032C55.8746 19.032 56.7192 19.2467 57.4846 19.676C58.2592 20.1053 58.8659 20.7027 59.3046 21.468C59.7526 22.2333 59.9766 23.0967 59.9766 24.058C59.9766 25.0193 59.7526 25.8873 59.3046 26.662C58.8566 27.4273 58.2499 28.0247 57.4846 28.454C56.7192 28.8833 55.8746 29.098 54.9506 29.098ZM54.9506 26.914C55.7346 26.914 56.3599 26.6527 56.8266 26.13C57.3026 25.6073 57.5406 24.9167 57.5406 24.058C57.5406 23.19 57.3026 22.4993 56.8266 21.986C56.3599 21.4633 55.7346 21.202 54.9506 21.202C54.1572 21.202 53.5226 21.4587 53.0466 21.972C52.5799 22.4853 52.3466 23.1807 52.3466 24.058C52.3466 24.926 52.5799 25.6213 53.0466 26.144C53.5226 26.6573 54.1572 26.914 54.9506 26.914ZM65.9564 29.098C65.0324 29.098 64.1831 28.8833 63.4084 28.454C62.6431 28.0247 62.0318 27.4273 61.5744 26.662C61.1264 25.8873 60.9024 25.0193 60.9024 24.058C60.9024 23.0967 61.1264 22.2333 61.5744 21.468C62.0318 20.7027 62.6431 20.1053 63.4084 19.676C64.1831 19.2467 65.0324 19.032 65.9564 19.032C66.8804 19.032 67.7251 19.2467 68.4904 19.676C69.2651 20.1053 69.8718 20.7027 70.3104 21.468C70.7584 22.2333 70.9824 23.0967 70.9824 24.058C70.9824 25.0193 70.7584 25.8873 70.3104 26.662C69.8624 27.4273 69.2558 28.0247 68.4904 28.454C67.7251 28.8833 66.8804 29.098 65.9564 29.098ZM65.9564 26.914C66.7404 26.914 67.3658 26.6527 67.8324 26.13C68.3084 25.6073 68.5464 24.9167 68.5464 24.058C68.5464 23.19 68.3084 22.4993 67.8324 21.986C67.3658 21.4633 66.7404 21.202 65.9564 21.202C65.1631 21.202 64.5284 21.4587 64.0524 21.972C63.5858 22.4853 63.3524 23.1807 63.3524 24.058C63.3524 24.926 63.5858 25.6213 64.0524 26.144C64.5284 26.6573 65.1631 26.914 65.9564 26.914ZM79.3843 19.172V21.09H76.7803V29H74.3863V21.09H71.7823V19.172H79.3843ZM84.1418 29.098C83.4231 29.098 82.7791 28.9813 82.2098 28.748C81.6404 28.5147 81.1831 28.1693 80.8378 27.712C80.5018 27.2547 80.3244 26.704 80.3058 26.06H82.8538C82.8911 26.424 83.0171 26.704 83.2318 26.9C83.4464 27.0867 83.7264 27.18 84.0718 27.18C84.4264 27.18 84.7064 27.1007 84.9118 26.942C85.1171 26.774 85.2198 26.5453 85.2198 26.256C85.2198 26.0133 85.1358 25.8127 84.9678 25.654C84.8091 25.4953 84.6084 25.3647 84.3658 25.262C84.1324 25.1593 83.7964 25.0427 83.3578 24.912C82.7231 24.716 82.2051 24.52 81.8038 24.324C81.4024 24.128 81.0571 23.8387 80.7678 23.456C80.4784 23.0733 80.3338 22.574 80.3338 21.958C80.3338 21.0433 80.6651 20.3293 81.3278 19.816C81.9904 19.2933 82.8538 19.032 83.9178 19.032C85.0004 19.032 85.8731 19.2933 86.5358 19.816C87.1984 20.3293 87.5531 21.048 87.5998 21.972H85.0098C84.9911 21.6547 84.8744 21.4073 84.6598 21.23C84.4451 21.0433 84.1698 20.95 83.8338 20.95C83.5444 20.95 83.3111 21.0293 83.1338 21.188C82.9564 21.3373 82.8678 21.5567 82.8678 21.846C82.8678 22.1633 83.0171 22.4107 83.3158 22.588C83.6144 22.7653 84.0811 22.9567 84.7158 23.162C85.3504 23.3767 85.8638 23.582 86.2558 23.778C86.6571 23.974 87.0024 24.2587 87.2918 24.632C87.5811 25.0053 87.7258 25.486 87.7258 26.074C87.7258 26.634 87.5811 27.1427 87.2918 27.6C87.0118 28.0573 86.6011 28.4213 86.0598 28.692C85.5184 28.9627 84.8791 29.098 84.1418 29.098ZM96.2691 19.172V21.09H93.6651V29H91.2711V21.09H88.6671V19.172H96.2691ZM102.483 29L100.439 25.29H99.8645V29H97.4705V19.172H101.489C102.263 19.172 102.921 19.3073 103.463 19.578C104.013 19.8487 104.424 20.222 104.695 20.698C104.965 21.1647 105.101 21.6873 105.101 22.266C105.101 22.9193 104.914 23.5027 104.541 24.016C104.177 24.5293 103.635 24.8933 102.917 25.108L105.185 29H102.483ZM99.8645 23.596H101.349C101.787 23.596 102.114 23.4887 102.329 23.274C102.553 23.0593 102.665 22.756 102.665 22.364C102.665 21.9907 102.553 21.6967 102.329 21.482C102.114 21.2673 101.787 21.16 101.349 21.16H99.8645V23.596ZM112.721 27.264H109.053L108.465 29H105.959L109.515 19.172H112.287L115.843 29H113.309L112.721 27.264ZM112.105 25.416L110.887 21.818L109.683 25.416H112.105ZM124.416 22.336C124.416 22.9053 124.285 23.428 124.024 23.904C123.762 24.3707 123.361 24.7487 122.82 25.038C122.278 25.3273 121.606 25.472 120.804 25.472H119.32V29H116.926V19.172H120.804C121.588 19.172 122.25 19.3073 122.792 19.578C123.333 19.8487 123.739 20.222 124.01 20.698C124.28 21.174 124.416 21.72 124.416 22.336ZM120.622 23.568C121.079 23.568 121.42 23.4607 121.644 23.246C121.868 23.0313 121.98 22.728 121.98 22.336C121.98 21.944 121.868 21.6407 121.644 21.426C121.42 21.2113 121.079 21.104 120.622 21.104H119.32V23.568H120.622Z" fill="white"/>
<path d="M21.25 9.5H19C10.9919 9.5 4.5 15.9919 4.5 24C4.5 32.0081 10.9919 38.5 19 38.5H21.25C29.2581 38.5 35.75 32.0081 35.75 24C35.75 15.9919 29.2581 9.5 21.25 9.5Z" fill="white"/>
<path d="M21.5654 22.4004C21.5654 21.7529 21.1084 21.3955 20.3057 21.3955H18.8291V23.4814H20.0742C21.0352 23.4785 21.5654 23.0918 21.5654 22.4004ZM26.9414 22.0254C26.6631 21.1201 26.6221 20.0098 26.6543 19.1514C26.6865 18.2578 25.9893 17.4375 25.0518 17.4375H15.4189C14.4785 17.4375 13.7842 18.2607 13.8164 19.1514C13.8457 20.0098 13.8076 21.1201 13.5293 22.0254C13.248 22.9336 12.7764 23.5078 12 23.5811V24.416C12.7734 24.4893 13.248 25.0635 13.5293 25.9717C13.8076 26.877 13.8486 27.9873 13.8164 28.8457C13.7842 29.7393 14.4814 30.5596 15.4189 30.5596H25.0488C25.9893 30.5596 26.6836 29.7363 26.6514 28.8457C26.6221 27.9873 26.6602 26.877 26.9385 25.9717C27.2197 25.0635 27.6914 24.4893 28.4648 24.416V23.5811C27.6943 23.5078 27.2197 22.9336 26.9414 22.0254ZM20.5898 27.4893H17.7217V20.5078H20.5752C21.8438 20.5078 22.6758 21.1934 22.6758 22.248C22.6758 22.9893 22.1162 23.6514 21.4014 23.7656V23.8037C22.374 23.9092 23.0273 24.583 23.0273 25.5117C23.0273 26.7451 22.1104 27.4893 20.5898 27.4893ZM20.2969 24.3047H18.8291V26.6016H20.3613C21.3633 26.6016 21.8936 26.2002 21.8936 25.4443C21.8936 24.6914 21.3486 24.3047 20.2969 24.3047Z" fill="#563D7C"/>
</svg>
