<svg width="105" height="48" viewBox="0 0 105 48" fill="none" xmlns="http://www.w3.org/2000/svg">
<path d="M105 0H0V48H105V0Z" fill="#2965F1"/>
<path d="M40.7784 24.072C40.7784 23.1013 40.9884 22.238 41.4084 21.482C41.8284 20.7167 42.4117 20.124 43.1584 19.704C43.9144 19.2747 44.7684 19.06 45.7204 19.06C46.8871 19.06 47.8857 19.368 48.7164 19.984C49.5471 20.6 50.1024 21.44 50.3824 22.504H47.7504C47.5544 22.0933 47.2744 21.7807 46.9104 21.566C46.5557 21.3513 46.1497 21.244 45.6924 21.244C44.9551 21.244 44.3577 21.5007 43.9004 22.014C43.4431 22.5273 43.2144 23.2133 43.2144 24.072C43.2144 24.9307 43.4431 25.6167 43.9004 26.13C44.3577 26.6433 44.9551 26.9 45.6924 26.9C46.1497 26.9 46.5557 26.7927 46.9104 26.578C47.2744 26.3633 47.5544 26.0507 47.7504 25.64H50.3824C50.1024 26.704 49.5471 27.544 48.7164 28.16C47.8857 28.7667 46.8871 29.07 45.7204 29.07C44.7684 29.07 43.9144 28.86 43.1584 28.44C42.4117 28.0107 41.8284 27.418 41.4084 26.662C40.9884 25.906 40.7784 25.0427 40.7784 24.072ZM55.4045 29.098C54.6858 29.098 54.0418 28.9813 53.4725 28.748C52.9031 28.5147 52.4458 28.1693 52.1005 27.712C51.7645 27.2547 51.5871 26.704 51.5685 26.06H54.1165C54.1538 26.424 54.2798 26.704 54.4945 26.9C54.7091 27.0867 54.9891 27.18 55.3345 27.18C55.6891 27.18 55.9691 27.1007 56.1745 26.942C56.3798 26.774 56.4825 26.5453 56.4825 26.256C56.4825 26.0133 56.3985 25.8127 56.2305 25.654C56.0718 25.4953 55.8711 25.3647 55.6285 25.262C55.3951 25.1593 55.0591 25.0427 54.6205 24.912C53.9858 24.716 53.4678 24.52 53.0665 24.324C52.6651 24.128 52.3198 23.8387 52.0305 23.456C51.7411 23.0733 51.5965 22.574 51.5965 21.958C51.5965 21.0433 51.9278 20.3293 52.5905 19.816C53.2531 19.2933 54.1165 19.032 55.1805 19.032C56.2631 19.032 57.1358 19.2933 57.7985 19.816C58.4611 20.3293 58.8158 21.048 58.8625 21.972H56.2725C56.2538 21.6547 56.1371 21.4073 55.9225 21.23C55.7078 21.0433 55.4325 20.95 55.0965 20.95C54.8071 20.95 54.5738 21.0293 54.3965 21.188C54.2191 21.3373 54.1305 21.5567 54.1305 21.846C54.1305 22.1633 54.2798 22.4107 54.5785 22.588C54.8771 22.7653 55.3438 22.9567 55.9785 23.162C56.6131 23.3767 57.1265 23.582 57.5185 23.778C57.9198 23.974 58.2651 24.2587 58.5545 24.632C58.8438 25.0053 58.9885 25.486 58.9885 26.074C58.9885 26.634 58.8438 27.1427 58.5545 27.6C58.2745 28.0573 57.8638 28.4213 57.3225 28.692C56.7811 28.9627 56.1418 29.098 55.4045 29.098ZM64.0178 29.098C63.2991 29.098 62.6551 28.9813 62.0858 28.748C61.5164 28.5147 61.0591 28.1693 60.7138 27.712C60.3778 27.2547 60.2004 26.704 60.1818 26.06H62.7298C62.7671 26.424 62.8931 26.704 63.1078 26.9C63.3224 27.0867 63.6024 27.18 63.9478 27.18C64.3024 27.18 64.5824 27.1007 64.7878 26.942C64.9931 26.774 65.0958 26.5453 65.0958 26.256C65.0958 26.0133 65.0118 25.8127 64.8438 25.654C64.6851 25.4953 64.4844 25.3647 64.2418 25.262C64.0084 25.1593 63.6724 25.0427 63.2338 24.912C62.5991 24.716 62.0811 24.52 61.6798 24.324C61.2784 24.128 60.9331 23.8387 60.6438 23.456C60.3544 23.0733 60.2098 22.574 60.2098 21.958C60.2098 21.0433 60.5411 20.3293 61.2038 19.816C61.8664 19.2933 62.7298 19.032 63.7938 19.032C64.8764 19.032 65.7491 19.2933 66.4118 19.816C67.0744 20.3293 67.4291 21.048 67.4758 21.972H64.8858C64.8671 21.6547 64.7504 21.4073 64.5358 21.23C64.3211 21.0433 64.0458 20.95 63.7097 20.95C63.4204 20.95 63.1871 21.0293 63.0098 21.188C62.8324 21.3373 62.7438 21.5567 62.7438 21.846C62.7438 22.1633 62.8931 22.4107 63.1917 22.588C63.4904 22.7653 63.9571 22.9567 64.5918 23.162C65.2264 23.3767 65.7398 23.582 66.1318 23.778C66.5331 23.974 66.8784 24.2587 67.1678 24.632C67.4571 25.0053 67.6018 25.486 67.6018 26.074C67.6018 26.634 67.4571 27.1427 67.1678 27.6C66.8878 28.0573 66.4771 28.4213 65.9358 28.692C65.3944 28.9627 64.7551 29.098 64.0178 29.098ZM68.921 21.664C68.9584 20.6653 69.285 19.8953 69.901 19.354C70.517 18.8127 71.3524 18.542 72.407 18.542C73.107 18.542 73.7044 18.6633 74.199 18.906C74.703 19.1487 75.081 19.48 75.333 19.9C75.5944 20.32 75.725 20.7913 75.725 21.314C75.725 21.93 75.571 22.434 75.263 22.826C74.955 23.2087 74.5957 23.47 74.185 23.61V23.666C74.717 23.8433 75.137 24.1373 75.445 24.548C75.753 24.9587 75.907 25.486 75.907 26.13C75.907 26.7087 75.7717 27.222 75.501 27.67C75.2397 28.1087 74.8524 28.454 74.339 28.706C73.835 28.958 73.233 29.084 72.533 29.084C71.413 29.084 70.517 28.8087 69.845 28.258C69.1824 27.7073 68.8324 26.8767 68.795 25.766H71.119C71.1284 26.1767 71.245 26.5033 71.469 26.746C71.693 26.9793 72.0197 27.096 72.449 27.096C72.813 27.096 73.093 26.9933 73.289 26.788C73.4944 26.5733 73.597 26.2933 73.597 25.948C73.597 25.5 73.4524 25.178 73.163 24.982C72.883 24.7767 72.4304 24.674 71.805 24.674H71.357V22.728H71.805C72.281 22.728 72.6637 22.6487 72.953 22.49C73.2517 22.322 73.401 22.028 73.401 21.608C73.401 21.272 73.3077 21.0107 73.121 20.824C72.9344 20.6373 72.6777 20.544 72.351 20.544C71.9964 20.544 71.7304 20.6513 71.553 20.866C71.385 21.0807 71.287 21.3467 71.259 21.664H68.921Z" fill="white"/>
<path d="M21.25 9.5H19C10.9919 9.5 4.5 15.9919 4.5 24C4.5 32.0081 10.9919 38.5 19 38.5H21.25C29.2581 38.5 35.75 32.0081 35.75 24C35.75 15.9919 29.2581 9.5 21.25 9.5Z" fill="white"/>
<path d="M14.5 17.4375L15.5225 29.0332L20.125 30.5625L24.7275 29.0332L25.75 17.4375H14.5ZM23.6729 19.7812L23.5322 21.167L20.1543 22.6113L20.1455 22.6143H23.4121L23.0371 26.9092L20.1602 27.75L17.2656 26.8945L17.0781 24.7295H18.5107L18.6045 25.8516L20.1455 26.2412L21.748 25.79L21.8564 23.9854L16.9844 23.9707V23.9678L16.9785 23.9707L16.873 22.6143L20.1572 21.2461L20.3477 21.167H16.7471L16.5771 19.7812H23.6729Z" fill="#2965F1"/>
</svg>
