<svg width="116" height="48" viewBox="0 0 116 48" fill="none" xmlns="http://www.w3.org/2000/svg">
<path d="M116 0H0V48H116V0Z" fill="#E34F26"/>
<path d="M49.8097 19.172V29H47.4157V24.954H43.6917V29H41.2977V19.172H43.6917V23.022H47.4157V19.172H49.8097ZM58.6079 19.172V21.09H56.0039V29H53.6099V21.09H51.0059V19.172H58.6079ZM70.9394 19.172V29H68.5454V23.106L66.3474 29H64.4154L62.2034 23.092V29H59.8094V19.172H62.6374L65.3954 25.976L68.1254 19.172H70.9394ZM75.055 27.152H78.191V29H72.661V19.172H75.055V27.152ZM86.2908 20.866H81.9228V22.798C82.1095 22.5927 82.3708 22.4247 82.7068 22.294C83.0428 22.1633 83.4068 22.098 83.7988 22.098C84.4988 22.098 85.0775 22.2567 85.5348 22.574C86.0015 22.8913 86.3422 23.302 86.5568 23.806C86.7715 24.31 86.8788 24.856 86.8788 25.444C86.8788 26.536 86.5708 27.404 85.9548 28.048C85.3388 28.6827 84.4708 29 83.3508 29C82.6042 29 81.9555 28.874 81.4048 28.622C80.8542 28.3607 80.4295 28.0013 80.1308 27.544C79.8322 27.0867 79.6688 26.5593 79.6408 25.962H81.9788C82.0348 26.2513 82.1702 26.494 82.3848 26.69C82.5995 26.8767 82.8935 26.97 83.2668 26.97C83.7055 26.97 84.0322 26.83 84.2468 26.55C84.4615 26.27 84.5688 25.8967 84.5688 25.43C84.5688 24.9727 84.4568 24.6227 84.2328 24.38C84.0088 24.1373 83.6822 24.016 83.2528 24.016C82.9355 24.016 82.6742 24.0953 82.4688 24.254C82.2635 24.4033 82.1282 24.604 82.0628 24.856H79.7528V18.766H86.2908V20.866Z" fill="white"/>
<path d="M21.25 9.5H19C10.9919 9.5 4.5 15.9919 4.5 24C4.5 32.0081 10.9919 38.5 19 38.5H21.25C29.2581 38.5 35.75 32.0081 35.75 24C35.75 15.9919 29.2581 9.5 21.25 9.5Z" fill="white"/>
<path d="M14.5 17.4375L15.5225 29.0332L20.1104 30.5625L24.7275 29.0332L25.75 17.4375H14.5ZM23.5293 21.1846H18.1445L18.2646 22.6318H23.4092L23.0107 26.9795L20.1426 27.7705V27.7793H20.1104L17.2188 26.9795L17.043 24.7588H18.4404L18.543 25.875L20.1104 26.2998L21.6836 25.875L21.8594 24.0527H16.9697L16.5947 19.7871H23.6582L23.5293 21.1846Z" fill="#E34F26"/>
</svg>
