<svg width="157" height="48" viewBox="0 0 157 48" fill="none" xmlns="http://www.w3.org/2000/svg">
<path d="M157 0H0V48H157V0Z" fill="#FFD133"/>
<path d="M47.2721 19.172V25.864C47.2721 26.9 46.9781 27.698 46.3901 28.258C45.8115 28.818 45.0275 29.098 44.0381 29.098C43.0021 29.098 42.1715 28.804 41.5461 28.216C40.9208 27.628 40.6081 26.7927 40.6081 25.71H42.9881C42.9881 26.1207 43.0721 26.4333 43.2401 26.648C43.4081 26.8533 43.6508 26.956 43.9681 26.956C44.2575 26.956 44.4815 26.8627 44.6401 26.676C44.7988 26.4893 44.8781 26.2187 44.8781 25.864V19.172H47.2721ZM55.3239 27.264H51.6559L51.0679 29H48.5619L52.1179 19.172H54.8899L58.4459 29H55.9119L55.3239 27.264ZM54.7079 25.416L53.4899 21.818L52.2859 25.416H54.7079ZM68.7542 19.172L65.2682 29H62.2722L58.7862 19.172H61.3342L63.7702 26.592L66.2202 19.172H68.7542ZM75.8727 27.264H72.2047L71.6167 29H69.1107L72.6667 19.172H75.4387L78.9947 29H76.4607L75.8727 27.264ZM75.2567 25.416L74.0387 21.818L72.8347 25.416H75.2567ZM83.633 29.098C82.9143 29.098 82.2703 28.9813 81.701 28.748C81.1317 28.5147 80.6743 28.1693 80.329 27.712C79.993 27.2547 79.8157 26.704 79.797 26.06H82.345C82.3823 26.424 82.5083 26.704 82.723 26.9C82.9377 27.0867 83.2177 27.18 83.563 27.18C83.9177 27.18 84.1977 27.1007 84.403 26.942C84.6083 26.774 84.711 26.5453 84.711 26.256C84.711 26.0133 84.627 25.8127 84.459 25.654C84.3003 25.4953 84.0997 25.3647 83.857 25.262C83.6237 25.1593 83.2877 25.0427 82.849 24.912C82.2143 24.716 81.6963 24.52 81.295 24.324C80.8937 24.128 80.5483 23.8387 80.259 23.456C79.9697 23.0733 79.825 22.574 79.825 21.958C79.825 21.0433 80.1563 20.3293 80.819 19.816C81.4817 19.2933 82.345 19.032 83.409 19.032C84.4917 19.032 85.3643 19.2933 86.027 19.816C86.6897 20.3293 87.0443 21.048 87.091 21.972H84.501C84.4823 21.6547 84.3657 21.4073 84.151 21.23C83.9363 21.0433 83.661 20.95 83.325 20.95C83.0357 20.95 82.8023 21.0293 82.625 21.188C82.4477 21.3373 82.359 21.5567 82.359 21.846C82.359 22.1633 82.5083 22.4107 82.807 22.588C83.1057 22.7653 83.5723 22.9567 84.207 23.162C84.8417 23.3767 85.355 23.582 85.747 23.778C86.1483 23.974 86.4937 24.2587 86.783 24.632C87.0723 25.0053 87.217 25.486 87.217 26.074C87.217 26.634 87.0723 27.1427 86.783 27.6C86.503 28.0573 86.0923 28.4213 85.551 28.692C85.0097 28.9627 84.3703 29.098 83.633 29.098ZM88.2843 24.072C88.2843 23.1013 88.4943 22.238 88.9143 21.482C89.3343 20.7167 89.9176 20.124 90.6643 19.704C91.4203 19.2747 92.2743 19.06 93.2263 19.06C94.3929 19.06 95.3916 19.368 96.2223 19.984C97.0529 20.6 97.6083 21.44 97.8883 22.504H95.2563C95.0603 22.0933 94.7803 21.7807 94.4163 21.566C94.0616 21.3513 93.6556 21.244 93.1983 21.244C92.4609 21.244 91.8636 21.5007 91.4063 22.014C90.9489 22.5273 90.7203 23.2133 90.7203 24.072C90.7203 24.9307 90.9489 25.6167 91.4063 26.13C91.8636 26.6433 92.4609 26.9 93.1983 26.9C93.6556 26.9 94.0616 26.7927 94.4163 26.578C94.7803 26.3633 95.0603 26.0507 95.2563 25.64H97.8883C97.6083 26.704 97.0529 27.544 96.2223 28.16C95.3916 28.7667 94.3929 29.07 93.2263 29.07C92.2743 29.07 91.4203 28.86 90.6643 28.44C89.9176 28.0107 89.3343 27.418 88.9143 26.662C88.4943 25.906 88.2843 25.0427 88.2843 24.072ZM104.366 29L102.322 25.29H101.748V29H99.3543V19.172H103.372C104.147 19.172 104.805 19.3073 105.346 19.578C105.897 19.8487 106.308 20.222 106.578 20.698C106.849 21.1647 106.984 21.6873 106.984 22.266C106.984 22.9193 106.798 23.5027 106.424 24.016C106.06 24.5293 105.519 24.8933 104.8 25.108L107.068 29H104.366ZM101.748 23.596H103.232C103.671 23.596 103.998 23.4887 104.212 23.274C104.436 23.0593 104.548 22.756 104.548 22.364C104.548 21.9907 104.436 21.6967 104.212 21.482C103.998 21.2673 103.671 21.16 103.232 21.16H101.748V23.596ZM110.881 19.172V29H108.487V19.172H110.881ZM120.106 22.336C120.106 22.9053 119.975 23.428 119.714 23.904C119.453 24.3707 119.051 24.7487 118.51 25.038C117.969 25.3273 117.297 25.472 116.494 25.472H115.01V29H112.616V19.172H116.494C117.278 19.172 117.941 19.3073 118.482 19.578C119.023 19.8487 119.429 20.222 119.7 20.698C119.971 21.174 120.106 21.72 120.106 22.336ZM116.312 23.568C116.769 23.568 117.11 23.4607 117.334 23.246C117.558 23.0313 117.67 22.728 117.67 22.336C117.67 21.944 117.558 21.6407 117.334 21.426C117.11 21.2113 116.769 21.104 116.312 21.104H115.01V23.568H116.312ZM128.422 19.172V21.09H125.818V29H123.424V21.09H120.82V19.172H128.422Z" fill="white"/>
<path d="M21.25 9.5H19C10.9919 9.5 4.5 15.9919 4.5 24C4.5 32.0081 10.9919 38.5 19 38.5H21.25C29.2581 38.5 35.75 32.0081 35.75 24C35.75 15.9919 29.2581 9.5 21.25 9.5Z" fill="white"/>
<path d="M25.3087 17.4375H14.9962C14.2199 17.4375 13.59 18.0674 13.59 18.8438V29.1562C13.59 29.9326 14.2199 30.5625 14.9962 30.5625H25.3087C26.0851 30.5625 26.715 29.9326 26.715 29.1562V18.8438C26.715 18.0674 26.0851 17.4375 25.3087 17.4375ZM20.7326 27.6738C20.7326 28.9512 19.9826 29.5342 18.8898 29.5342C17.9025 29.5342 17.3312 29.0244 17.0382 28.4062L18.0431 27.7998C18.2365 28.1426 18.4123 28.4326 18.8371 28.4326C19.2414 28.4326 19.4992 28.2744 19.4992 27.6562V23.4639H20.7326V27.6738ZM23.6505 29.5342C22.505 29.5342 21.7638 28.9893 21.4035 28.2744L22.4084 27.6943C22.672 28.125 23.0177 28.4443 23.6242 28.4443C24.1339 28.4443 24.4621 28.1895 24.4621 27.835C24.4621 27.4131 24.1281 27.2637 23.5627 27.0146L23.255 26.8828C22.3644 26.5049 21.7755 26.0273 21.7755 25.0225C21.7755 24.0967 22.4816 23.3936 23.5802 23.3936C24.3654 23.3936 24.9279 23.666 25.3322 24.3809L24.3712 24.9961C24.1603 24.6182 23.9318 24.4688 23.5773 24.4688C23.2169 24.4688 22.9884 24.6973 22.9884 24.9961C22.9884 25.3652 23.2169 25.5146 23.7472 25.7461L24.0548 25.8779C25.1037 26.3262 25.6925 26.7861 25.6925 27.8174C25.6925 28.9248 24.8195 29.5342 23.6505 29.5342Z" fill="#323330"/>
</svg>
