<svg width="131" height="48" viewBox="0 0 131 48" fill="none" xmlns="http://www.w3.org/2000/svg">
<path d="M131 0H0V48H131V0Z" fill="#61DBFB"/>
<path d="M46.0441 29L44.0001 25.29H43.4261V29H41.0321V19.172H45.0501C45.8247 19.172 46.4827 19.3073 47.0241 19.578C47.5747 19.8487 47.9854 20.222 48.2561 20.698C48.5267 21.1647 48.6621 21.6873 48.6621 22.266C48.6621 22.9193 48.4754 23.5027 48.1021 24.016C47.7381 24.5293 47.1967 24.8933 46.4781 25.108L48.7461 29H46.0441ZM43.4261 23.596H44.9101C45.3487 23.596 45.6754 23.4887 45.8901 23.274C46.1141 23.0593 46.2261 22.756 46.2261 22.364C46.2261 21.9907 46.1141 21.6967 45.8901 21.482C45.6754 21.2673 45.3487 21.16 44.9101 21.16H43.4261V23.596ZM52.5589 21.09V23.078H55.7649V24.926H52.5589V27.082H56.1849V29H50.1649V19.172H56.1849V21.09H52.5589ZM63.8571 27.264H60.1891L59.6011 29H57.0951L60.6511 19.172H63.4231L66.9791 29H64.4451L63.8571 27.264ZM63.2411 25.416L62.0231 21.818L60.8191 25.416H63.2411ZM67.6554 24.072C67.6554 23.1013 67.8654 22.238 68.2854 21.482C68.7054 20.7167 69.2887 20.124 70.0354 19.704C70.7914 19.2747 71.6454 19.06 72.5974 19.06C73.764 19.06 74.7627 19.368 75.5934 19.984C76.424 20.6 76.9794 21.44 77.2594 22.504H74.6274C74.4314 22.0933 74.1514 21.7807 73.7874 21.566C73.4327 21.3513 73.0267 21.244 72.5694 21.244C71.832 21.244 71.2347 21.5007 70.7774 22.014C70.32 22.5273 70.0914 23.2133 70.0914 24.072C70.0914 24.9307 70.32 25.6167 70.7774 26.13C71.2347 26.6433 71.832 26.9 72.5694 26.9C73.0267 26.9 73.4327 26.7927 73.7874 26.578C74.1514 26.3633 74.4314 26.0507 74.6274 25.64H77.2594C76.9794 26.704 76.424 27.544 75.5934 28.16C74.7627 28.7667 73.764 29.07 72.5974 29.07C71.6454 29.07 70.7914 28.86 70.0354 28.44C69.2887 28.0107 68.7054 27.418 68.2854 26.662C67.8654 25.906 67.6554 25.0427 67.6554 24.072ZM85.7954 19.172V21.09H83.1914V29H80.7974V21.09H78.1934V19.172H85.7954ZM93.1569 19.172V25.864C93.1569 26.9 92.8629 27.698 92.2749 28.258C91.6962 28.818 90.9122 29.098 89.9229 29.098C88.8869 29.098 88.0562 28.804 87.4309 28.216C86.8056 27.628 86.4929 26.7927 86.4929 25.71H88.8729C88.8729 26.1207 88.9569 26.4333 89.1249 26.648C89.2929 26.8533 89.5356 26.956 89.8529 26.956C90.1422 26.956 90.3662 26.8627 90.5249 26.676C90.6836 26.4893 90.7629 26.2187 90.7629 25.864V19.172H93.1569ZM98.6467 29.098C97.928 29.098 97.284 28.9813 96.7147 28.748C96.1453 28.5147 95.688 28.1693 95.3427 27.712C95.0067 27.2547 94.8293 26.704 94.8107 26.06H97.3587C97.396 26.424 97.522 26.704 97.7367 26.9C97.9513 27.0867 98.2313 27.18 98.5767 27.18C98.9313 27.18 99.2113 27.1007 99.4167 26.942C99.622 26.774 99.7247 26.5453 99.7247 26.256C99.7247 26.0133 99.6407 25.8127 99.4727 25.654C99.314 25.4953 99.1133 25.3647 98.8707 25.262C98.6373 25.1593 98.3013 25.0427 97.8627 24.912C97.228 24.716 96.71 24.52 96.3087 24.324C95.9073 24.128 95.562 23.8387 95.2727 23.456C94.9833 23.0733 94.8387 22.574 94.8387 21.958C94.8387 21.0433 95.17 20.3293 95.8327 19.816C96.4953 19.2933 97.3587 19.032 98.4227 19.032C99.5053 19.032 100.378 19.2933 101.041 19.816C101.703 20.3293 102.058 21.048 102.105 21.972H99.5147C99.496 21.6547 99.3793 21.4073 99.1647 21.23C98.95 21.0433 98.6747 20.95 98.3387 20.95C98.0493 20.95 97.816 21.0293 97.6387 21.188C97.4613 21.3373 97.3727 21.5567 97.3727 21.846C97.3727 22.1633 97.522 22.4107 97.8207 22.588C98.1193 22.7653 98.586 22.9567 99.2207 23.162C99.8553 23.3767 100.369 23.582 100.761 23.778C101.162 23.974 101.507 24.2587 101.797 24.632C102.086 25.0053 102.231 25.486 102.231 26.074C102.231 26.634 102.086 27.1427 101.797 27.6C101.517 28.0573 101.106 28.4213 100.565 28.692C100.023 28.9627 99.384 29.098 98.6467 29.098Z" fill="white"/>
<path d="M21.25 9.5H19C10.9919 9.5 4.5 15.9919 4.5 24C4.5 32.0081 10.9919 38.5 19 38.5H21.25C29.2581 38.5 35.75 32.0081 35.75 24C35.75 15.9919 29.2581 9.5 21.25 9.5Z" fill="white"/>
<path d="M24.8719 21.6915C24.7137 21.6388 24.5555 21.589 24.3973 21.5421C24.4237 21.4337 24.4471 21.3253 24.4706 21.2169C24.8309 19.4708 24.5936 18.0675 23.7938 17.6046C23.0233 17.1622 21.7665 17.6222 20.495 18.7296C20.369 18.838 20.246 18.9523 20.1288 19.0665C20.0497 18.9904 19.9677 18.9142 19.8856 18.8409C18.5526 17.6573 17.2167 17.1593 16.4169 17.6251C15.6493 18.0704 15.4208 19.3917 15.743 21.0441C15.7753 21.2081 15.8104 21.3693 15.8514 21.5333C15.6639 21.5861 15.4794 21.6447 15.3065 21.7062C13.7421 22.2482 12.62 23.1036 12.62 23.9884C12.62 24.9025 13.8153 25.8195 15.4413 26.3761C15.5731 26.42 15.705 26.464 15.8397 26.5021C15.7958 26.6779 15.7577 26.8507 15.7225 27.0294C15.4149 28.6554 15.6552 29.9445 16.4227 30.3868C17.2137 30.8439 18.5438 30.3751 19.8387 29.2413C19.9413 29.1505 20.0438 29.0568 20.1464 28.9572C20.2753 29.0831 20.41 29.2032 20.5448 29.3204C21.7987 30.3986 23.038 30.8351 23.8026 30.3927C24.5936 29.9357 24.8514 28.5499 24.5175 26.8624C24.4911 26.7335 24.4618 26.6017 24.4296 26.4669C24.5233 26.4406 24.6141 26.4113 24.705 26.382C26.3954 25.8224 27.62 24.9171 27.62 23.9884C27.62 23.1007 26.4657 22.2394 24.8719 21.6915ZM20.9081 19.2042C21.9979 18.255 23.0145 17.8829 23.4774 18.1495C23.9725 18.4337 24.163 19.5822 23.8524 21.0909C23.8319 21.1906 23.8114 21.2872 23.785 21.3839C23.1346 21.2374 22.4755 21.132 21.8134 21.0734C21.4325 20.5284 21.0165 20.007 20.5653 19.5177C20.6796 19.4093 20.7909 19.3068 20.9081 19.2042ZM17.5184 25.5089C17.6678 25.7638 17.8202 26.0187 17.9813 26.2677C17.5243 26.2179 17.0702 26.1447 16.6219 26.048C16.7509 25.6261 16.912 25.1896 17.0995 24.7443C17.2343 25.0021 17.3719 25.257 17.5184 25.5089ZM16.6307 21.9845C17.0526 21.8907 17.5009 21.8146 17.9667 21.756C17.8114 21.9991 17.6591 22.2482 17.5155 22.5001C17.3719 22.7491 17.2313 23.004 17.0995 23.2618C16.9149 22.8253 16.7596 22.3976 16.6307 21.9845ZM17.4335 24.0031C17.6268 23.5988 17.8378 23.2032 18.0604 22.8136C18.2831 22.4239 18.5233 22.046 18.7753 21.674C19.2147 21.6417 19.663 21.6241 20.12 21.6241C20.577 21.6241 21.0282 21.6417 21.4647 21.674C21.7137 22.0431 21.9511 22.421 22.1766 22.8077C22.4022 23.1945 22.6132 23.59 22.8124 23.9913C22.6161 24.3956 22.4052 24.7941 22.1796 25.1866C21.9569 25.5763 21.7196 25.9542 21.4706 26.3292C21.0341 26.3614 20.58 26.3761 20.12 26.3761C19.66 26.3761 19.2147 26.3615 18.7841 26.3351C18.5292 25.963 18.2889 25.5822 18.0634 25.1925C17.8378 24.8029 17.6298 24.4073 17.4335 24.0031ZM22.7245 25.5031C22.8739 25.2452 23.0145 24.9845 23.1522 24.7208C23.3397 25.1456 23.5038 25.5763 23.6473 26.0187C23.1932 26.1212 22.7333 26.2003 22.2704 26.2531C22.4286 26.007 22.578 25.755 22.7245 25.5031ZM23.1464 23.2618C23.0087 23.004 22.868 22.7462 22.7216 22.4943C22.578 22.2452 22.4286 21.9991 22.2733 21.756C22.745 21.8146 23.1962 21.8937 23.618 21.9904C23.4833 22.4239 23.3251 22.8458 23.1464 23.2618ZM20.1259 19.9659C20.4335 20.2999 20.7235 20.6515 20.993 21.0148C20.413 20.9884 19.83 20.9884 19.2499 21.0148C19.537 20.6368 19.8329 20.2853 20.1259 19.9659ZM16.7274 18.17C17.2196 17.8829 18.3124 18.2931 19.4637 19.3126C19.537 19.3771 19.6102 19.4474 19.6864 19.5177C19.2323 20.007 18.8134 20.5284 18.4296 21.0734C17.7675 21.132 17.1112 21.2345 16.4608 21.3781C16.4227 21.2286 16.3905 21.0763 16.3583 20.924C16.0829 19.506 16.2645 18.4366 16.7274 18.17ZM16.0096 25.8927C15.8866 25.8575 15.7665 25.8195 15.6464 25.7784C15.0223 25.5822 14.3134 25.2716 13.8007 24.8644C13.5048 24.6593 13.3055 24.3429 13.2499 23.9884C13.2499 23.4523 14.1757 22.7667 15.5116 22.3009C15.6786 22.2423 15.8485 22.1896 16.0184 22.1398C16.2177 22.7755 16.4579 23.3995 16.7362 24.0031C16.455 24.6154 16.2118 25.2482 16.0096 25.8927ZM19.4257 28.7638C18.9423 29.2062 18.3827 29.5577 17.7733 29.798C17.4481 29.9532 17.0731 29.9679 16.7391 29.8361C16.2733 29.5665 16.08 28.5323 16.3436 27.1407C16.3759 26.9767 16.411 26.8126 16.452 26.6515C17.1083 26.7921 17.7704 26.8888 18.4413 26.9386C18.828 27.4864 19.2528 28.0109 19.7069 28.5031C19.6132 28.5939 19.5194 28.6818 19.4257 28.7638ZM20.1434 28.0519C19.8446 27.7296 19.5458 27.3722 19.2557 26.9884C19.537 27.0001 19.827 27.006 20.12 27.006C20.4218 27.006 20.7177 27.0001 21.0106 26.9855C20.7411 27.3575 20.451 27.712 20.1434 28.0519ZM23.9725 28.9308C23.9462 29.2882 23.7704 29.6222 23.4891 29.8478C23.0233 30.1173 22.0302 29.7657 20.9579 28.8458C20.8348 28.7404 20.7118 28.6261 20.5858 28.5089C21.0341 28.0138 21.4471 27.4894 21.8221 26.9386C22.493 26.8829 23.161 26.7804 23.8202 26.631C23.8495 26.7511 23.8759 26.8712 23.8993 26.9884C24.0428 27.6212 24.0663 28.2804 23.9725 28.9308ZM24.5057 25.7814C24.4237 25.8077 24.3417 25.8341 24.2567 25.8575C24.0516 25.2189 23.7997 24.5948 23.5096 23.9884C23.7909 23.3907 24.0282 22.7755 24.2274 22.1456C24.3798 22.1896 24.5262 22.2364 24.6669 22.2833C26.0321 22.7521 26.9901 23.4493 26.9901 23.9825C26.9901 24.5568 25.9677 25.298 24.5057 25.7814ZM20.12 25.3419C20.8612 25.3419 21.4618 24.7413 21.4618 24.0001C21.4618 23.2589 20.8612 22.6583 20.12 22.6583C19.3788 22.6583 18.7782 23.2589 18.7782 24.0001C18.7782 24.7413 19.3788 25.3419 20.12 25.3419Z" fill="#61DBFB"/>
</svg>
