<svg width="165" height="48" viewBox="0 0 165 48" fill="none" xmlns="http://www.w3.org/2000/svg">
<path d="M165 0H0V48H165V0Z" fill="#2383AE"/>
<path d="M48.0191 19.172V21.09H45.4151V29H43.0211V21.09H40.4171V19.172H48.0191ZM55.3385 27.264H51.6705L51.0825 29H48.5765L52.1325 19.172H54.9045L58.4605 29H55.9265L55.3385 27.264ZM54.7225 25.416L53.5045 21.818L52.3005 25.416H54.7225ZM61.9368 19.172V29H59.5428V19.172H61.9368ZM66.0657 27.152H69.2017V29H63.6717V19.172H66.0657V27.152ZM83.8676 19.172L81.3056 29H78.4076L76.8396 22.532L75.2156 29H72.3176L69.8256 19.172H72.3876L73.8016 26.326L75.5516 19.172H78.1836L79.8636 26.326L81.2916 19.172H83.8676ZM87.4622 19.172V29H85.0682V19.172H87.4622ZM97.9891 29H95.5951L91.5911 22.938V29H89.1971V19.172H91.5911L95.5951 25.262V19.172H97.9891V29ZM103.406 19.172C104.442 19.172 105.348 19.3773 106.122 19.788C106.897 20.1987 107.494 20.7773 107.914 21.524C108.344 22.2613 108.558 23.1153 108.558 24.086C108.558 25.0473 108.344 25.9013 107.914 26.648C107.494 27.3947 106.892 27.9733 106.108 28.384C105.334 28.7947 104.433 29 103.406 29H99.7244V19.172H103.406ZM103.252 26.928C104.158 26.928 104.862 26.6807 105.366 26.186C105.87 25.6913 106.122 24.9913 106.122 24.086C106.122 23.1807 105.87 22.476 105.366 21.972C104.862 21.468 104.158 21.216 103.252 21.216H102.118V26.928H103.252ZM109.49 24.072C109.49 23.1013 109.7 22.238 110.12 21.482C110.54 20.7167 111.124 20.124 111.87 19.704C112.626 19.2747 113.48 19.06 114.432 19.06C115.599 19.06 116.598 19.368 117.428 19.984C118.259 20.6 118.814 21.44 119.094 22.504H116.462C116.266 22.0933 115.986 21.7807 115.622 21.566C115.268 21.3513 114.862 21.244 114.404 21.244C113.667 21.244 113.07 21.5007 112.612 22.014C112.155 22.5273 111.926 23.2133 111.926 24.072C111.926 24.9307 112.155 25.6167 112.612 26.13C113.07 26.6433 113.667 26.9 114.404 26.9C114.862 26.9 115.268 26.7927 115.622 26.578C115.986 26.3633 116.266 26.0507 116.462 25.64H119.094C118.814 26.704 118.259 27.544 117.428 28.16C116.598 28.7667 115.599 29.07 114.432 29.07C113.48 29.07 112.626 28.86 111.87 28.44C111.124 28.0107 110.54 27.418 110.12 26.662C109.7 25.906 109.49 25.0427 109.49 24.072ZM124.116 29.098C123.398 29.098 122.754 28.9813 122.184 28.748C121.615 28.5147 121.158 28.1693 120.812 27.712C120.476 27.2547 120.299 26.704 120.28 26.06H122.828C122.866 26.424 122.992 26.704 123.206 26.9C123.421 27.0867 123.701 27.18 124.046 27.18C124.401 27.18 124.681 27.1007 124.886 26.942C125.092 26.774 125.194 26.5453 125.194 26.256C125.194 26.0133 125.11 25.8127 124.942 25.654C124.784 25.4953 124.583 25.3647 124.34 25.262C124.107 25.1593 123.771 25.0427 123.332 24.912C122.698 24.716 122.18 24.52 121.778 24.324C121.377 24.128 121.032 23.8387 120.742 23.456C120.453 23.0733 120.308 22.574 120.308 21.958C120.308 21.0433 120.64 20.3293 121.302 19.816C121.965 19.2933 122.828 19.032 123.892 19.032C124.975 19.032 125.848 19.2933 126.51 19.816C127.173 20.3293 127.528 21.048 127.574 21.972H124.984C124.966 21.6547 124.849 21.4073 124.634 21.23C124.42 21.0433 124.144 20.95 123.808 20.95C123.519 20.95 123.286 21.0293 123.108 21.188C122.931 21.3373 122.842 21.5567 122.842 21.846C122.842 22.1633 122.992 22.4107 123.29 22.588C123.589 22.7653 124.056 22.9567 124.69 23.162C125.325 23.3767 125.838 23.582 126.23 23.778C126.632 23.974 126.977 24.2587 127.266 24.632C127.556 25.0053 127.7 25.486 127.7 26.074C127.7 26.634 127.556 27.1427 127.266 27.6C126.986 28.0573 126.576 28.4213 126.034 28.692C125.493 28.9627 124.854 29.098 124.116 29.098ZM132.73 29.098C132.011 29.098 131.367 28.9813 130.798 28.748C130.228 28.5147 129.771 28.1693 129.426 27.712C129.09 27.2547 128.912 26.704 128.894 26.06H131.442C131.479 26.424 131.605 26.704 131.82 26.9C132.034 27.0867 132.314 27.18 132.66 27.18C133.014 27.18 133.294 27.1007 133.5 26.942C133.705 26.774 133.808 26.5453 133.808 26.256C133.808 26.0133 133.724 25.8127 133.556 25.654C133.397 25.4953 133.196 25.3647 132.954 25.262C132.72 25.1593 132.384 25.0427 131.946 24.912C131.311 24.716 130.793 24.52 130.392 24.324C129.99 24.128 129.645 23.8387 129.356 23.456C129.066 23.0733 128.922 22.574 128.922 21.958C128.922 21.0433 129.253 20.3293 129.916 19.816C130.578 19.2933 131.442 19.032 132.506 19.032C133.588 19.032 134.461 19.2933 135.124 19.816C135.786 20.3293 136.141 21.048 136.188 21.972H133.598C133.579 21.6547 133.462 21.4073 133.248 21.23C133.033 21.0433 132.758 20.95 132.422 20.95C132.132 20.95 131.899 21.0293 131.722 21.188C131.544 21.3373 131.456 21.5567 131.456 21.846C131.456 22.1633 131.605 22.4107 131.904 22.588C132.202 22.7653 132.669 22.9567 133.304 23.162C133.938 23.3767 134.452 23.582 134.844 23.778C135.245 23.974 135.59 24.2587 135.88 24.632C136.169 25.0053 136.314 25.486 136.314 26.074C136.314 26.634 136.169 27.1427 135.88 27.6C135.6 28.0573 135.189 28.4213 134.648 28.692C134.106 28.9627 133.467 29.098 132.73 29.098Z" fill="white"/>
<path d="M21.25 9.5H19C10.9919 9.5 4.5 15.9919 4.5 24C4.5 32.0081 10.9919 38.5 19 38.5H21.25C29.2581 38.5 35.75 32.0081 35.75 24C35.75 15.9919 29.2581 9.5 21.25 9.5Z" fill="white"/>
<path fill-rule="evenodd" clip-rule="evenodd" d="M16.365 22.5C16.8649 20.5001 18.1151 19.5 20.115 19.5C23.115 19.5 23.49 21.75 24.99 22.125C25.9901 22.3751 26.865 22.0001 27.615 21C27.1151 22.9999 25.8649 24 23.865 24C20.865 24 20.49 21.75 18.99 21.375C17.9899 21.1249 17.115 21.4999 16.365 22.5ZM12.615 27C13.1149 25.0001 14.3651 24 16.365 24C19.365 24 19.74 26.25 21.24 26.625C22.2401 26.8751 23.115 26.5001 23.865 25.5C23.3651 27.4999 22.1149 28.5 20.115 28.5C17.115 28.5 16.74 26.25 15.24 25.875C14.2399 25.6249 13.365 25.9999 12.615 27Z" fill="#2383AE"/>
</svg>
