<svg width="134" height="48" viewBox="0 0 134 48" fill="none" xmlns="http://www.w3.org/2000/svg">
<path d="M134 0H0V48H134V0Z" fill="#FF0000"/>
<path d="M49.6886 19.172L46.2866 25.752V29H43.8926V25.752L40.4906 19.172H43.2066L45.1106 23.288L47.0006 19.172H49.6886ZM55.3012 29.098C54.3772 29.098 53.5278 28.8833 52.7532 28.454C51.9878 28.0247 51.3765 27.4273 50.9192 26.662C50.4712 25.8873 50.2472 25.0193 50.2472 24.058C50.2472 23.0967 50.4712 22.2333 50.9192 21.468C51.3765 20.7027 51.9878 20.1053 52.7532 19.676C53.5278 19.2467 54.3772 19.032 55.3012 19.032C56.2252 19.032 57.0698 19.2467 57.8352 19.676C58.6098 20.1053 59.2165 20.7027 59.6552 21.468C60.1032 22.2333 60.3272 23.0967 60.3272 24.058C60.3272 25.0193 60.1032 25.8873 59.6552 26.662C59.2072 27.4273 58.6005 28.0247 57.8352 28.454C57.0698 28.8833 56.2252 29.098 55.3012 29.098ZM55.3012 26.914C56.0852 26.914 56.7105 26.6527 57.1772 26.13C57.6532 25.6073 57.8912 24.9167 57.8912 24.058C57.8912 23.19 57.6532 22.4993 57.1772 21.986C56.7105 21.4633 56.0852 21.202 55.3012 21.202C54.5078 21.202 53.8732 21.4587 53.3972 21.972C52.9305 22.4853 52.6972 23.1807 52.6972 24.058C52.6972 24.926 52.9305 25.6213 53.3972 26.144C53.8732 26.6573 54.5078 26.914 55.3012 26.914ZM64.011 19.172V25.052C64.011 25.64 64.1557 26.0927 64.445 26.41C64.7343 26.7273 65.159 26.886 65.719 26.886C66.279 26.886 66.7083 26.7273 67.007 26.41C67.3057 26.0927 67.455 25.64 67.455 25.052V19.172H69.849V25.038C69.849 25.9153 69.6623 26.6573 69.289 27.264C68.9157 27.8707 68.4117 28.328 67.777 28.636C67.1517 28.944 66.4517 29.098 65.677 29.098C64.9023 29.098 64.207 28.9487 63.591 28.65C62.9843 28.342 62.5037 27.8847 62.149 27.278C61.7943 26.662 61.617 25.9153 61.617 25.038V19.172H64.011ZM78.6001 19.172V21.09H75.9961V29H73.6021V21.09H70.9981V19.172H78.6001ZM82.1536 19.172V25.052C82.1536 25.64 82.2983 26.0927 82.5876 26.41C82.8769 26.7273 83.3016 26.886 83.8616 26.886C84.4216 26.886 84.8509 26.7273 85.1496 26.41C85.4483 26.0927 85.5976 25.64 85.5976 25.052V19.172H87.9916V25.038C87.9916 25.9153 87.8049 26.6573 87.4316 27.264C87.0583 27.8707 86.5543 28.328 85.9196 28.636C85.2943 28.944 84.5943 29.098 83.8196 29.098C83.0449 29.098 82.3496 28.9487 81.7336 28.65C81.1269 28.342 80.6463 27.8847 80.2916 27.278C79.9369 26.662 79.7596 25.9153 79.7596 25.038V19.172H82.1536ZM95.6227 23.96C96.192 24.0813 96.6494 24.366 96.9947 24.814C97.34 25.2527 97.5127 25.7567 97.5127 26.326C97.5127 27.1473 97.2234 27.8007 96.6447 28.286C96.0754 28.762 95.2774 29 94.2507 29H89.6727V19.172H94.0967C95.0954 19.172 95.8747 19.4007 96.4347 19.858C97.004 20.3153 97.2887 20.936 97.2887 21.72C97.2887 22.2987 97.1347 22.7793 96.8267 23.162C96.528 23.5447 96.1267 23.8107 95.6227 23.96ZM92.0667 23.148H93.6347C94.0267 23.148 94.3254 23.064 94.5307 22.896C94.7454 22.7187 94.8527 22.462 94.8527 22.126C94.8527 21.79 94.7454 21.5333 94.5307 21.356C94.3254 21.1787 94.0267 21.09 93.6347 21.09H92.0667V23.148ZM93.8307 27.068C94.232 27.068 94.54 26.9793 94.7547 26.802C94.9787 26.6153 95.0907 26.3493 95.0907 26.004C95.0907 25.6587 94.974 25.388 94.7407 25.192C94.5167 24.996 94.204 24.898 93.8027 24.898H92.0667V27.068H93.8307ZM101.295 21.09V23.078H104.501V24.926H101.295V27.082H104.921V29H98.9012V19.172H104.921V21.09H101.295Z" fill="white"/>
<path d="M21.25 9.5H19C10.9919 9.5 4.5 15.9919 4.5 24C4.5 32.0081 10.9919 38.5 19 38.5H21.25C29.2581 38.5 35.75 32.0081 35.75 24C35.75 15.9919 29.2581 9.5 21.25 9.5Z" fill="white"/>
<path d="M27.8157 20.1352C27.6317 19.4424 27.0895 18.8967 26.4011 18.7115C25.1534 18.375 20.15 18.375 20.15 18.375C20.15 18.375 15.1467 18.375 13.8989 18.7115C13.2105 18.8967 12.6683 19.4424 12.4843 20.1352C12.15 21.3911 12.15 24.0114 12.15 24.0114C12.15 24.0114 12.15 26.6316 12.4843 27.8875C12.6683 28.5804 13.2105 29.1033 13.8989 29.2885C15.1467 29.625 20.15 29.625 20.15 29.625C20.15 29.625 25.1533 29.625 26.4011 29.2885C27.0895 29.1033 27.6317 28.5804 27.8157 27.8875C28.15 26.6316 28.15 24.0114 28.15 24.0114C28.15 24.0114 28.15 21.3911 27.8157 20.1352ZM18.5136 26.3904V21.6324L22.6954 24.0114L18.5136 26.3904Z" fill="#FF0000"/>
</svg>
